<svg xmlns="http://www.w3.org/2000/svg" width="1024" height="1024" viewBox="0 0 1024 1024">
  <rect width="100%" height="100%" fill="#2563eb"/>
  <path d="M 871,459 870,460 866,460 865,461 862,461 861,462 857,462 856,463 853,463 852,464 848,464 847,465 844,465 843,466 839,466 838,467 834,467 833,468 830,468 829,469 825,469 824,470 822,470 821,471 817,471 816,472 813,472 812,473 809,473 808,474 804,474 803,475 800,475 799,476 796,476 795,477 791,477 790,478 787,478 786,479 783,479 782,480 779,480 778,481 775,481 774,482 771,482 770,483 766,483 765,484 762,484 761,485 758,485 757,486 754,486 753,487 750,487 749,488 746,488 745,489 742,489 741,490 739,490 738,491 734,491 733,492 730,492 729,493 726,493 725,494 723,494 722,495 719,495 718,496 715,496 714,497 711,497 710,498 708,498 707,499 704,499 703,500 700,500 699,501 696,501 695,502 693,502 692,503 689,503 688,504 685,504 684,505 682,505 681,506 678,506 677,507 674,507 673,508 671,508 670,509 667,509 666,510 664,510 663,511 660,511 659,512 657,512 656,513 653,513 652,514 650,514 649,515 646,515 645,516 643,516 642,517 639,517 638,518 636,518 635,519 632,519 631,520 629,520 628,521 626,521 625,522 622,522 621,523 618,523 617,524 615,524 614,525 611,525 610,526 608,526 607,527 604,527 603,528 601,528 600,529 598,529 597,530 595,530 594,531 592,531 591,532 588,532 587,533 585,533 584,534 582,534 581,535 579,535 578,536 575,536 574,537 572,537 571,538 569,538 568,539 566,539 565,540 562,540 561,541 559,541 558,542 556,542 555,543 552,543 551,544 549,544 548,545 546,545 545,546 543,546 542,547 540,547 539,548 537,548 536,549 533,549 532,550 530,550 529,551 527,551 526,552 524,552 523,553 521,553 520,554 518,554 517,555 515,555 514,556 512,556 511,557 508,557 507,558 505,558 504,559 502,559 501,560 499,560 498,561 496,561 495,562 493,562 492,563 490,563 489,564 487,564 486,565 484,565 483,566 481,566 480,567 478,567 477,568 475,568 474,569 472,569 471,570 469,570 468,571 466,571 465,572 462,572 461,573 459,573 458,574 456,574 455,575 453,575 452,576 451,576 450,577 448,577 447,578 445,578 444,579 442,579 441,580 439,580 438,581 436,581 435,582 433,582 432,583 430,583 429,584 427,584 426,585 424,585 423,586 421,586 420,587 418,587 417,588 415,588 414,589 412,589 411,590 409,590 408,591 407,591 406,592 404,592 403,593 401,593 400,594 398,594 397,595 395,595 394,596 392,596 391,597 389,597 388,598 387,598 386,599 384,599 383,600 381,600 380,601 378,601 377,602 375,602 374,603 372,603 371,604 370,604 369,605 367,605 366,606 364,606 363,607 361,607 360,608 359,608 358,609 356,609 355,610 353,610 352,611 350,611 349,612 348,612 347,613 345,613 344,614 342,614 341,615 340,615 339,616 337,616 336,617 334,617 333,618 332,618 331,619 329,619 328,620 326,620 325,621 323,621 322,622 320,622 319,623 318,623 317,624 315,624 314,625 313,625 312,626 310,626 309,627 307,627 306,628 305,628 304,629 302,629 301,630 299,630 298,631 297,631 296,632 294,632 293,633 292,633 291,634 289,634 288,635 286,635 285,636 283,636 282,637 281,637 280,638 278,638 277,639 276,639 275,640 273,640 272,641 270,641 269,642 268,642 267,643 265,643 264,644 263,644 262,645 260,645 259,646 258,646 257,647 255,647 254,648 253,648 252,649 250,649 249,650 248,650 247,651 246,651 246,726 247,726 248,725 249,725 250,724 251,724 252,723 253,723 254,722 256,722 257,721 258,721 259,720 260,720 261,719 262,719 263,718 264,718 265,717 266,717 267,716 269,716 270,715 271,715 272,714 273,714 274,713 276,713 277,712 278,712 279,711 280,711 281,710 282,710 283,709 284,709 285,708 287,708 288,707 289,707 290,706 292,706 293,705 294,705 295,704 296,704 297,703 298,703 299,702 300,702 301,701 303,701 304,700 305,700 306,699 308,699 309,698 310,698 311,697 312,697 313,696 314,696 315,695 317,695 318,694 319,694 320,693 321,693 322,692 324,692 325,691 326,691 327,690 328,690 329,689 330,689 331,688 333,688 334,687 335,687 336,686 337,686 338,685 339,685 340,684 342,684 343,683 344,683 345,682 347,682 348,681 349,681 350,680 351,680 352,679 354,679 355,678 356,678 357,677 358,677 359,676 361,676 362,675 363,675 364,674 366,674 367,673 368,673 369,672 371,672 372,671 373,671 374,670 375,670 376,669 377,669 378,668 380,668 381,667 382,667 383,666 385,666 386,665 387,665 388,664 390,664 391,663 392,663 393,662 395,662 396,661 397,661 398,660 400,660 401,659 402,659 403,658 405,658 406,657 407,657 408,656 409,656 410,655 412,655 413,654 414,654 415,653 417,653 418,652 419,652 420,651 422,651 423,650 424,650 425,649 427,649 428,648 429,648 430,647 432,647 433,646 434,646 435,645 437,645 438,644 439,644 440,643 442,643 443,642 444,642 445,641 447,641 448,640 449,640 450,639 452,639 453,638 454,638 455,637 457,637 458,636 459,636 460,635 462,635 463,634 464,634 465,633 467,633 468,632 470,632 471,631 472,631 473,630 475,630 476,629 477,629 478,628 480,628 481,627 482,627 483,626 485,626 486,625 488,625 489,624 490,624 491,623 492,623 493,622 495,622 496,621 498,621 499,620 500,620 501,619 503,619 504,618 506,618 507,617 508,617 509,616 511,616 512,615 514,615 515,614 516,614 517,613 519,613 520,612 522,612 523,611 524,611 525,610 527,610 528,609 529,609 530,608 532,608 533,607 535,607 536,606 537,606 538,605 540,605 541,604 543,604 544,603 545,603 546,602 548,602 549,601 551,601 552,600 554,600 555,599 556,599 557,598 559,598 560,597 562,597 563,596 564,596 565,595 567,595 568,594 570,594 571,593 573,593 574,592 575,592 576,591 578,591 579,590 581,590 582,589 584,589 585,588 587,588 588,587 589,587 590,586 592,586 593,585 595,585 596,584 598,584 599,583 601,583 602,582 604,582 605,581 606,581 607,580 609,580 610,579 612,579 613,578 615,578 616,577 618,577 619,576 621,576 622,575 624,575 625,574 627,574 628,573 630,573 631,572 632,572 633,571 635,571 636,570 638,570 639,569 641,569 642,568 644,568 645,567 647,567 648,566 650,566 651,565 652,565 653,564 654,564 655,565 653,567 652,567 651,568 650,568 648,570 647,570 646,571 645,571 643,573 642,573 640,575 639,575 638,576 637,576 635,578 634,578 633,579 632,579 630,581 629,581 628,582 627,582 625,584 624,584 623,585 622,585 620,587 619,587 618,588 617,588 615,590 614,590 612,592 611,592 610,593 609,593 607,595 606,595 605,596 604,596 602,598 601,598 600,599 599,599 597,601 596,601 595,602 594,602 592,604 591,604 590,605 589,605 587,607 586,607 585,608 584,608 582,610 581,610 579,612 578,612 577,613 576,613 575,614 574,614 572,616 571,616 569,618 568,618 567,619 566,619 564,621 563,621 562,622 561,622 559,624 558,624 557,625 556,625 554,627 553,627 552,628 551,628 549,630 548,630 547,631 546,631 544,633 543,633 542,634 541,634 539,636 538,636 537,637 536,637 534,639 533,639 531,641 530,641 529,642 528,642 527,643 526,643 524,645 523,645 522,646 521,646 519,648 518,648 516,650 515,650 514,651 513,651 512,652 511,652 509,654 508,654 507,655 506,655 504,657 503,657 501,659 500,659 499,660 498,660 497,661 496,661 494,663 493,663 491,665 490,665 489,666 488,666 487,667 486,667 484,669 483,669 482,670 481,670 479,672 478,672 476,674 475,674 474,675 473,675 471,677 470,677 469,678 468,678 466,680 465,680 464,681 463,681 461,683 460,683 459,684 458,684 456,686 455,686 454,687 453,687 451,689 450,689 449,690 448,690 446,692 445,692 444,693 443,693 441,695 440,695 439,696 438,696 436,698 435,698 434,699 433,699 431,701 430,701 429,702 428,702 427,703 426,703 424,705 423,705 421,707 420,707 419,708 418,708 416,710 415,710 414,711 413,711 411,713 410,713 409,714 408,714 406,716 405,716 404,717 403,717 401,719 400,719 399,720 398,720 396,722 395,722 394,723 393,723 391,725 390,725 389,726 388,726 386,728 385,728 384,729 383,729 381,731 380,731 379,732 378,732 376,734 375,734 374,735 373,735 371,737 370,737 369,738 368,738 366,740 365,740 364,741 363,741 361,743 360,743 359,744 358,744 356,746 355,746 354,747 353,747 351,749 350,749 349,750 348,750 347,751 346,751 344,753 343,753 341,755 340,755 339,756 338,756 336,758 335,758 334,759 333,759 331,761 330,761 329,762 328,762 326,764 325,764 324,765 323,765 322,766 321,766 319,768 318,768 316,770 315,770 314,771 313,771 311,773 310,773 309,774 308,774 306,776 305,776 304,777 303,777 301,779 300,779 299,780 298,780 296,782 295,782 294,783 293,783 291,785 290,785 288,787 287,787 286,788 285,788 284,789 283,789 281,791 280,791 279,792 278,792 276,794 275,794 274,795 273,795 271,797 270,797 269,798 268,798 266,800 265,800 263,802 262,802 261,803 260,803 258,805 262,809 263,809 266,812 267,812 271,816 272,816 274,818 275,818 276,819 277,819 279,821 280,821 281,822 282,822 283,823 284,823 285,824 286,824 287,825 289,825 290,826 291,826 292,827 294,827 295,828 297,828 298,829 301,829 302,830 306,830 307,831 312,831 313,832 331,832 332,831 336,831 337,830 341,830 342,829 345,829 346,828 349,828 350,827 352,827 353,826 355,826 356,825 358,825 359,824 360,824 361,823 362,823 363,822 364,822 365,821 366,821 367,820 368,820 369,819 370,819 371,818 372,818 373,817 374,817 375,816 376,816 378,814 379,814 380,813 381,813 382,812 383,812 384,811 385,811 387,809 388,809 389,808 390,808 391,807 392,807 394,805 395,805 396,804 397,804 398,803 399,803 401,801 402,801 403,800 404,800 406,798 407,798 408,797 409,797 410,796 411,796 413,794 414,794 415,793 416,793 417,792 418,792 420,790 421,790 422,789 423,789 424,788 425,788 427,786 428,786 429,785 430,785 432,783 433,783 434,782 435,782 437,780 438,780 439,779 440,779 442,777 443,777 444,776 445,776 446,775 447,775 449,773 450,773 451,772 452,772 454,770 455,770 456,769 457,769 459,767 460,767 461,766 462,766 464,764 465,764 466,763 467,763 468,762 469,762 471,760 472,760 473,759 474,759 476,757 477,757 478,756 479,756 481,754 482,754 483,753 484,753 486,751 487,751 488,750 489,750 491,748 492,748 493,747 494,747 496,745 497,745 498,744 499,744 500,743 501,743 503,741 504,741 505,740 506,740 508,738 509,738 510,737 511,737 513,735 514,735 515,734 516,734 518,732 519,732 520,731 521,731 523,729 524,729 525,728 526,728 528,726 529,726 530,725 531,725 533,723 534,723 535,722 536,722 538,720 539,720 541,718 542,718 543,717 544,717 546,715 547,715 548,714 549,714 551,712 552,712 553,711 554,711 556,709 557,709 558,708 559,708 561,706 562,706 563,705 564,705 566,703 567,703 568,702 569,702 571,700 572,700 573,699 574,699 576,697 577,697 578,696 579,696 581,694 582,694 583,693 584,693 585,692 586,692 588,690 589,690 591,688 592,688 593,687 594,687 596,685 597,685 598,684 599,684 601,682 602,682 603,681 604,681 606,679 607,679 608,678 609,678 611,676 612,676 613,675 614,675 616,673 617,673 618,672 619,672 621,670 622,670 624,668 625,668 626,667 627,667 629,665 630,665 631,664 632,664 634,662 635,662 636,661 637,661 639,659 640,659 641,658 642,658 644,656 645,656 646,655 647,655 649,653 650,653 651,652 652,652 654,650 655,650 656,649 657,649 659,647 660,647 661,646 662,646 664,644 665,644 666,643 667,643 669,641 670,641 671,640 672,640 674,638 675,638 676,637 677,637 679,635 680,635 681,634 682,634 684,632 685,632 687,630 688,630 689,629 690,629 692,627 693,627 694,626 695,626 697,624 698,624 699,623 700,623 702,621 703,621 704,620 705,620 707,618 708,618 709,617 710,617 712,615 713,615 715,613 716,613 717,612 718,612 719,611 720,611 722,609 723,609 725,607 726,607 727,606 728,606 730,604 731,604 733,602 734,602 735,601 736,601 737,600 738,600 740,598 741,598 742,597 743,597 745,595 746,595 747,594 748,594 750,592 751,592 753,590 754,590 755,589 756,589 758,587 759,587 760,586 761,586 763,584 764,584 766,582 767,582 768,581 769,581 771,579 772,579 773,578 774,578 776,576 777,576 778,575 779,575 781,573 782,573 784,571 785,571 786,570 787,570 789,568 790,568 791,567 792,567 794,565 795,565 796,564 797,564 799,562 800,562 802,560 803,560 805,558 806,558 807,557 808,557 810,555 811,555 813,553 814,553 815,552 816,552 817,551 818,551 820,549 821,549 822,548 823,548 825,546 826,546 828,544 829,544 831,542 832,542 833,541 834,541 836,539 837,539 839,537 840,537 841,536 842,536 844,534 845,534 848,531 849,531 862,518 862,517 865,514 865,513 867,511 867,510 869,508 869,507 870,506 870,504 871,503 871,502 872,501 872,500 873,499 873,497 874,496 874,493 875,492 875,489 876,488 876,483 877,482 877,464 876,463 876,459 Z" fill="white"/>
  <path d="M 626,302 623,305 622,305 619,308 618,308 616,310 615,310 612,313 611,313 608,316 607,316 605,318 604,318 601,321 600,321 597,324 596,324 594,326 593,326 590,329 589,329 586,332 585,332 582,335 581,335 578,338 577,338 574,341 573,341 570,344 569,344 567,346 566,346 563,349 562,349 559,352 558,352 555,355 554,355 551,358 550,358 547,361 546,361 543,364 542,364 540,366 539,366 536,369 535,369 531,373 530,373 528,375 527,375 524,378 523,378 520,381 519,381 516,384 515,384 512,387 511,387 508,390 507,390 504,393 503,393 501,395 500,395 497,398 496,398 493,401 492,401 490,403 489,403 486,406 485,406 482,409 481,409 479,411 478,411 477,412 479,412 480,411 483,411 484,410 487,410 488,409 491,409 492,408 495,408 496,407 499,407 500,406 503,406 504,405 507,405 508,404 510,404 511,403 514,403 515,402 518,402 519,401 523,401 524,400 527,400 528,399 530,399 531,398 534,398 535,397 538,397 539,396 542,396 543,395 546,395 547,394 550,394 551,393 554,393 555,392 558,392 559,391 562,391 563,390 566,390 567,389 570,389 571,388 574,388 575,387 578,387 579,386 582,386 583,385 586,385 587,384 590,384 591,383 594,383 595,382 598,382 599,381 602,381 603,380 606,380 607,379 610,379 611,378 614,378 615,377 618,377 619,376 622,376 623,375 626,375 627,374 630,374 631,373 634,373 635,372 638,372 639,371 642,371 643,370 646,370 647,369 650,369 651,368 654,368 655,367 658,367 659,366 662,366 663,365 666,365 667,364 670,364 671,363 674,363 675,362 678,362 679,361 682,361 683,360 686,360 687,359 690,359 691,358 693,358 694,357 698,357 699,356 702,356 703,355 706,355 707,354 710,354 711,353 714,353 715,352 716,352 715,351 714,351 713,350 712,350 711,349 710,349 709,348 708,348 706,346 705,346 704,345 703,345 702,344 701,344 700,343 699,343 697,341 696,341 695,340 694,340 693,339 692,339 691,338 690,338 688,336 687,336 686,335 685,335 684,334 683,334 682,333 681,333 679,331 678,331 677,330 676,330 675,329 674,329 672,327 671,327 670,326 669,326 668,325 667,325 666,324 665,324 663,322 662,322 661,321 660,321 659,320 658,320 657,319 656,319 654,317 653,317 652,316 651,316 650,315 649,315 648,314 647,314 645,312 644,312 643,311 642,311 641,310 640,310 639,309 638,309 636,307 635,307 634,306 633,306 632,305 631,305 630,304 629,304 627,302 Z" fill="white"/>
  <path d="M 511,239 508,242 507,242 503,246 502,246 498,250 497,250 494,253 493,253 489,257 488,257 484,261 483,261 479,265 478,265 474,269 473,269 469,273 468,273 464,277 463,277 459,281 458,281 455,284 454,284 449,289 448,289 445,292 444,292 440,296 439,296 435,300 434,300 430,304 429,304 425,308 424,308 420,312 419,312 415,316 414,316 411,319 410,319 406,323 405,323 401,327 400,327 396,331 395,331 392,334 391,334 386,339 385,339 382,342 381,342 377,346 376,346 373,349 372,349 367,354 366,354 363,357 362,357 358,361 357,361 353,365 352,365 347,370 346,370 343,373 342,373 338,377 337,377 334,380 333,380 329,384 328,384 324,388 323,388 319,392 318,392 314,396 313,396 309,400 308,400 304,404 303,404 300,407 299,407 295,411 294,411 291,414 290,414 285,419 284,419 280,423 279,423 275,427 274,427 271,430 270,430 265,435 264,435 260,439 259,439 255,443 254,443 251,446 250,446 246,450 246,607 248,605 250,605 251,604 252,604 253,603 255,603 256,602 257,602 258,601 260,601 261,600 262,600 263,599 265,599 266,598 268,598 269,597 270,597 271,596 273,596 274,595 275,595 276,594 278,594 279,593 281,593 282,592 283,592 284,591 285,591 286,590 288,590 289,589 291,589 292,588 293,588 294,587 296,587 297,586 299,586 300,585 302,585 303,584 304,584 305,583 307,583 308,582 309,582 310,581 312,581 313,580 315,580 316,579 318,579 319,578 320,578 321,577 323,577 324,576 326,576 327,575 328,575 329,574 331,574 332,573 334,573 335,572 336,572 337,571 339,571 340,570 342,570 343,569 345,569 346,568 348,568 349,567 350,567 351,566 353,566 354,565 356,565 357,564 359,564 360,563 362,563 363,562 365,562 366,561 367,561 368,560 370,560 371,559 373,559 374,558 376,558 377,557 378,557 379,556 381,556 382,555 384,555 385,554 388,554 389,553 390,553 391,552 393,552 394,551 396,551 397,550 399,550 400,549 402,549 403,548 405,548 406,547 408,547 409,546 411,546 412,545 414,545 415,544 417,544 418,543 420,543 421,542 423,542 424,541 426,541 427,540 429,540 430,539 432,539 433,538 435,538 436,537 438,537 439,536 441,536 442,535 444,535 445,534 447,534 448,533 451,533 452,532 454,532 455,531 457,531 458,530 460,530 461,529 463,529 464,528 466,528 467,527 469,527 470,526 472,526 473,525 475,525 476,524 479,524 480,523 483,523 484,522 486,522 487,521 489,521 490,520 492,520 493,519 496,519 497,518 499,518 500,517 502,517 503,516 506,516 507,515 509,515 510,514 513,514 514,513 516,513 517,512 519,512 520,511 523,511 524,510 526,510 527,509 529,509 530,508 533,508 534,507 536,507 537,506 540,506 541,505 544,505 545,504 547,504 548,503 551,503 552,502 554,502 555,501 558,501 559,500 562,500 563,499 565,499 566,498 569,498 570,497 573,497 574,496 576,496 577,495 580,495 581,494 583,494 584,493 587,493 588,492 591,492 592,491 595,491 596,490 599,490 600,489 602,489 603,488 606,488 607,487 610,487 611,486 614,486 615,485 618,485 619,484 622,484 623,483 625,483 626,482 629,482 630,481 633,481 634,480 637,480 638,479 641,479 642,478 645,478 646,477 649,477 650,476 653,476 654,475 657,475 658,474 661,474 662,473 666,473 667,472 670,472 671,471 673,471 674,470 678,470 679,469 683,469 684,468 687,468 688,467 691,467 692,466 695,466 696,465 699,465 700,464 703,464 704,463 708,463 709,462 712,462 713,461 716,461 717,460 721,460 722,459 726,459 727,458 730,458 731,457 735,457 736,456 739,456 740,455 744,455 745,454 748,454 749,453 753,453 754,452 758,452 759,451 763,451 764,450 768,450 769,449 773,449 774,448 778,448 779,447 782,447 783,446 787,446 788,445 792,445 793,444 798,444 799,443 803,443 804,442 808,442 809,441 813,441 814,440 818,440 819,439 823,439 824,438 828,438 829,437 834,437 835,436 839,436 840,435 845,435 846,434 850,434 851,433 856,433 857,432 860,432 859,432 858,431 857,431 856,430 855,430 853,428 852,428 851,427 850,427 849,426 848,426 846,424 845,424 844,423 843,423 842,422 841,422 840,421 839,421 837,419 836,419 835,418 834,418 833,417 832,417 830,415 829,415 828,414 827,414 826,413 825,413 824,412 823,412 821,410 820,410 819,409 818,409 817,408 816,408 814,406 813,406 812,405 811,405 810,404 809,404 808,403 807,403 806,402 805,402 803,400 802,400 801,399 800,399 798,397 797,397 796,396 795,396 794,395 793,395 792,394 791,394 790,393 789,393 787,391 786,391 785,390 784,390 783,389 782,389 781,388 780,388 778,386 777,386 776,385 775,385 774,384 773,384 772,383 771,383 770,382 769,382 767,380 766,380 765,379 764,379 763,378 759,378 758,379 755,379 754,380 750,380 749,381 746,381 745,382 742,382 741,383 737,383 736,384 733,384 732,385 729,385 728,386 725,386 724,387 721,387 720,388 717,388 716,389 713,389 712,390 709,390 708,391 705,391 704,392 701,392 700,393 696,393 695,394 693,394 692,395 688,395 687,396 684,396 683,397 680,397 679,398 676,398 675,399 672,399 671,400 668,400 667,401 664,401 663,402 660,402 659,403 656,403 655,404 652,404 651,405 648,405 647,406 644,406 643,407 641,407 640,408 637,408 636,409 633,409 632,410 629,410 628,411 625,411 624,412 621,412 620,413 617,413 616,414 614,414 613,415 610,415 609,416 606,416 605,417 602,417 601,418 599,418 598,419 595,419 594,420 591,420 590,421 587,421 586,422 584,422 583,423 580,423 579,424 577,424 576,425 573,425 572,426 569,426 568,427 566,427 565,428 562,428 561,429 558,429 557,430 554,430 553,431 551,431 550,432 547,432 546,433 543,433 542,434 540,434 539,435 536,435 535,436 533,436 532,437 529,437 528,438 525,438 524,439 522,439 521,440 518,440 517,441 515,441 514,442 511,442 510,443 508,443 507,444 504,444 503,445 500,445 499,446 497,446 496,447 493,447 492,448 490,448 489,449 487,449 486,450 483,450 482,451 480,451 479,452 476,452 475,453 473,453 472,454 469,454 468,455 466,455 465,456 462,456 461,457 459,457 458,458 455,458 454,459 452,459 451,460 449,460 448,461 445,461 444,462 442,462 441,463 439,463 438,464 436,464 435,465 432,465 431,466 429,466 428,467 426,467 425,468 422,468 421,469 419,469 418,470 415,470 414,471 412,471 411,472 409,472 408,473 406,473 405,474 403,474 402,475 400,475 399,476 396,476 395,477 393,477 392,478 390,478 389,479 387,479 386,480 384,480 383,481 381,481 380,482 378,482 377,483 374,483 373,484 371,484 370,485 368,485 367,486 365,486 364,487 362,487 361,488 359,488 358,489 356,489 355,490 353,490 352,491 349,491 348,492 346,492 345,493 343,493 342,494 340,494 339,495 337,495 336,496 334,496 333,497 331,497 330,498 329,498 328,497 332,493 333,493 337,489 338,489 345,482 346,482 352,476 353,476 359,470 360,470 367,463 368,463 374,457 375,457 381,451 382,451 390,443 391,443 398,436 399,436 406,429 407,429 414,422 415,422 422,415 423,415 430,408 431,408 437,402 438,402 446,394 447,394 453,388 454,388 462,380 463,380 469,374 470,374 475,369 476,369 484,361 485,361 492,354 493,354 501,346 502,346 508,340 509,340 517,332 518,332 525,325 526,325 534,317 535,317 542,310 543,310 550,303 551,303 558,296 559,296 566,289 567,289 575,281 576,281 580,277 580,276 579,276 578,275 577,275 576,274 575,274 574,273 573,273 572,272 571,272 570,271 569,271 567,269 566,269 565,268 564,268 563,267 562,267 561,266 560,266 558,264 557,264 556,263 555,263 554,262 553,262 552,261 551,261 550,260 549,260 547,258 546,258 545,257 544,257 543,256 542,256 541,255 540,255 539,254 538,254 537,253 536,253 535,252 534,252 532,250 531,250 530,249 529,249 528,248 527,248 526,247 525,247 523,245 522,245 521,244 520,244 519,243 518,243 517,242 516,242 515,241 514,241 513,240 512,240 Z" fill="white"/>
  <path d="M 304,139 303,140 296,140 295,141 292,141 291,142 288,142 287,143 286,143 285,144 283,144 282,145 281,145 280,146 279,146 278,147 277,147 276,148 275,148 273,150 272,150 269,153 268,153 259,162 259,163 256,166 256,167 255,168 255,169 253,171 253,172 252,173 252,174 251,175 251,177 250,178 250,179 249,180 249,182 248,183 248,186 247,187 247,192 246,193 246,348 248,346 249,346 251,344 252,344 254,342 255,342 256,341 257,341 258,340 259,340 261,338 262,338 263,337 264,337 266,335 267,335 268,334 269,334 271,332 272,332 273,331 274,331 275,330 276,330 278,328 279,328 280,327 281,327 283,325 284,325 285,324 286,324 287,323 288,323 290,321 291,321 292,320 293,320 295,318 296,318 297,317 298,317 300,315 301,315 302,314 303,314 304,313 305,313 307,311 308,311 309,310 310,310 311,309 312,309 314,307 315,307 316,306 317,306 319,304 320,304 321,303 322,303 324,301 325,301 326,300 327,300 329,298 330,298 331,297 332,297 334,295 335,295 336,294 337,294 339,292 340,292 341,291 342,291 344,289 345,289 346,288 347,288 349,286 350,286 351,285 352,285 354,283 355,283 356,282 357,282 358,281 359,281 361,279 362,279 363,278 364,278 366,276 367,276 368,275 369,275 371,273 372,273 373,272 374,272 376,270 377,270 378,269 379,269 381,267 382,267 383,266 384,266 385,265 386,265 388,263 389,263 390,262 391,262 393,260 394,260 395,259 396,259 398,257 399,257 400,256 401,256 403,254 404,254 405,253 406,253 408,251 409,251 410,250 411,250 413,248 414,248 415,247 416,247 418,245 419,245 420,244 421,244 422,243 423,243 425,241 426,241 428,239 429,239 430,238 431,238 433,236 434,236 435,235 436,235 438,233 439,233 440,232 441,232 442,231 443,231 445,229 446,229 447,228 448,228 449,227 450,227 452,225 453,225 454,224 455,224 457,222 458,222 460,220 461,220 462,219 463,219 465,217 466,217 467,216 468,216 467,216 465,214 464,214 463,213 462,213 461,212 460,212 459,211 458,211 457,210 456,210 455,209 454,209 452,207 451,207 450,206 449,206 448,205 447,205 446,204 445,204 444,203 443,203 442,202 441,202 440,201 439,201 438,200 437,200 435,198 434,198 433,197 432,197 431,196 430,196 429,195 428,195 427,194 426,194 425,193 424,193 422,191 421,191 420,190 419,190 418,189 417,189 416,188 415,188 414,187 413,187 412,186 411,186 410,185 409,185 407,183 406,183 405,182 404,182 403,181 402,181 401,180 400,180 399,179 398,179 397,178 396,178 394,176 393,176 392,175 391,175 390,174 389,174 388,173 387,173 386,172 385,172 384,171 383,171 381,169 380,169 379,168 378,168 377,167 376,167 375,166 374,166 373,165 372,165 371,164 370,164 368,162 367,162 366,161 365,161 364,160 363,160 362,159 361,159 360,158 359,158 358,157 357,157 356,156 355,156 353,154 352,154 351,153 350,153 349,152 348,152 347,151 346,151 345,150 344,150 343,149 342,149 340,147 339,147 338,146 337,146 336,145 335,145 334,144 333,144 332,143 330,143 329,142 327,142 326,141 322,141 321,140 315,140 314,139 Z" fill="white"/>
</svg>
